# xmcd CD database file
#
# Track frame offsets:
#	150
#	13472
#	27411
#	45584
#	60393
#	68241
#	81438
#	87564
#	101417
#	108720
#	128621
#	143077
#	159011
#	165386
#	173254
#
# Disc length: 2490 seconds
#
# Revision: 0
# Processed by: cddbd v1.5PL3 Copyright (c) Steve Scherf et al.
# Submitted via: CDex 1.40Release
#
DISCID=b909b80f
DTITLE=Enya - The Celts
DYEAR=1986
DGENRE=New Age
TTITLE0=The Celts
TTITLE1=Aldeberan (Dedicated To Ridley Scott)
TTITLE2=I Want Tomorrow
TTITLE3=March Of The Celts
TTITLE4=Deireadh An Tuath
TTITLE5=The Sun In The Stream
TTITLE6=To Go Beyond (I)
TTITLE7=Fairytale
TTITLE8=Epona
TTITLE9=Triad - St. Patrick, Cú Chulainn, Oisin
TTITLE10=Portrait (Out of the Blue)
TTITLE11=Boadicea
TTITLE12=Bard Dance
TTITLE13=Dan Y Dwr
TTITLE14=To Go Beyond (II)
EXTD=YEAR: 1986 ID3G: 10
EXTT0=
EXTT1=
EXTT2=
EXTT3=
EXTT4=
EXTT5=
EXTT6=
EXTT7=
EXTT8=
EXTT9=
EXTT10=
EXTT11=
EXTT12=
EXTT13=
EXTT14=
PLAYORDER=
